<svg width="66" height="73" viewBox="0 0 66 73" fill="none" xmlns="http://www.w3.org/2000/svg">
<path d="M38.7667 66.3334C38.1807 67.3436 37.3395 68.1822 36.3275 68.7651C35.3154 69.3481 34.168 69.6549 33.0001 69.6549C31.8321 69.6549 30.6847 69.3481 29.6726 68.7651C28.6606 68.1822 27.8194 67.3436 27.2334 66.3334M53 23C53 17.6957 50.8929 12.6086 47.1421 8.85786C43.3914 5.10714 38.3043 3 33 3C27.6957 3 22.6086 5.10714 18.8579 8.85786C15.1071 12.6086 13 17.6957 13 23C13 46.3333 3 53 3 53H63C63 53 53 46.3333 53 23Z" stroke="#C0C1C2" stroke-width="5" stroke-linecap="round" stroke-linejoin="round"/>
</svg>
