<svg width="536" height="590" viewBox="0 0 536 590" fill="none" xmlns="http://www.w3.org/2000/svg">
<path d="M432.667 185.598C432.667 141.926 415.318 100.042 384.437 69.1614C353.556 38.2804 311.672 20.9316 268 20.9316C224.328 20.9316 182.444 38.2804 151.563 69.1614C120.682 100.042 103.333 141.926 103.333 185.598C103.333 377.709 21 432.598 21 432.598H515C515 432.598 432.667 377.709 432.667 185.598Z" stroke="#F4F6F7" stroke-width="40" stroke-linecap="round" stroke-linejoin="round"/>
<path d="M315.479 542.376C310.654 550.694 303.729 557.599 295.396 562.398C287.064 567.197 277.617 569.724 268.001 569.724C258.385 569.724 248.937 567.197 240.605 562.398C232.272 557.599 225.347 550.694 220.522 542.376" stroke="#F4F6F7" stroke-width="40" stroke-linecap="round" stroke-linejoin="round"/>
</svg>
